<svg xmlns="http://www.w3.org/2000/svg" viewBox="0 0 781 200" width="781" height="200">
  
  <g transform="translate(110.0,100.0) scale(1.1251)"><line x1="0.00" y1="-24.00" x2="0.00" y2="-49.38" stroke="#16161D" stroke-width="9" stroke-linecap="round"/><line x1="12.98" y1="-20.19" x2="25.84" y2="-40.21" stroke="#16161D" stroke-width="9" stroke-linecap="round"/><line x1="21.83" y1="-9.97" x2="47.65" y2="-21.76" stroke="#16161D" stroke-width="9" stroke-linecap="round"/><line x1="23.76" y1="3.42" x2="46.60" y2="6.70" stroke="#16161D" stroke-width="9" stroke-linecap="round"/><line x1="18.14" y1="15.72" x2="38.79" y2="33.61" stroke="#16161D" stroke-width="9" stroke-linecap="round"/><line x1="6.76" y1="23.03" x2="14.02" y2="47.75" stroke="#16161D" stroke-width="9" stroke-linecap="round"/><line x1="-6.76" y1="23.03" x2="-13.23" y2="45.04" stroke="#16161D" stroke-width="9" stroke-linecap="round"/><line x1="-18.14" y1="15.72" x2="-38.59" y2="33.44" stroke="#16161D" stroke-width="9" stroke-linecap="round"/><line x1="-23.76" y1="3.42" x2="-46.28" y2="6.65" stroke="#16161D" stroke-width="9" stroke-linecap="round"/><line x1="-21.83" y1="-9.97" x2="-45.84" y2="-20.93" stroke="#16161D" stroke-width="9" stroke-linecap="round"/><line x1="-12.98" y1="-20.19" x2="-25.44" y2="-39.58" stroke="#16161D" stroke-width="9" stroke-linecap="round"/><circle cx="0" cy="0" r="16" fill="#FF5A3C"/></g>
  <g transform="translate(212.0,144.64) scale(0.124,-0.124)"><path d="M64.799560546875 0.0V493.0H176.201171875V365.199951171875L152.4007568359375 351.1990966796875Q160.6007080078125 394.1995849609375 177.10076904296875 423.2998046875Q193.600830078125 452.4000244140625 216.00091552734375 469.7000732421875Q238.4010009765625 487.0001220703125 263.7010498046875 494.60009765625Q289.0010986328125 502.2000732421875 314.801025390625 502.2000732421875Q355.4007568359375 502.2000732421875 390.2008056640625 486.8001708984375Q425.0008544921875 471.4002685546875 449.60101318359375 436.70025634765625Q474.201171875 402.000244140625 483.4012451171875 343.39990234375L418.2001953125 324.7989501953125Q433.2001953125 388.5997314453125 460.00042724609375 427.49993896484375Q486.8006591796875 466.400146484375 523.30078125 484.30010986328125Q559.8009033203125 502.2000732421875 603.400634765625 502.2000732421875Q666.000732421875 502.2000732421875 704.4008178710938 474.50006103515625Q742.8009033203125 446.800048828125 760.8009643554688 402.5001220703125Q778.801025390625 358.2001953125 778.801025390625 307.200439453125V0.0H667.9993896484375V280.4000244140625Q667.9993896484375 320.7996826171875 658.2994384765625 348.79937744140625Q648.5994873046875 376.799072265625 628.899658203125 391.39886474609375Q609.1998291015625 405.9986572265625 577.6002197265625 405.9986572265625Q545.200439453125 405.9986572265625 522.900634765625 389.39874267578125Q500.600830078125 372.798828125 489.1009521484375 339.0989990234375Q477.60107421875 305.399169921875 477.60107421875 254.599365234375V0.0H366.5994873046875V284.599853515625Q366.5994873046875 345.5992431640625 343.99969482421875 375.7989501953125Q321.39990234375 405.9986572265625 279.0003662109375 405.9986572265625Q246.2005615234375 405.9986572265625 223.20074462890625 389.0987548828125Q200.200927734375 372.1988525390625 188.2010498046875 338.79901123046875Q176.201171875 305.399169921875 176.201171875 254.599365234375V0.0ZM902.799560546875 0.0V493.0H1014.201171875V383.5997314453125L994.201171875 379.39990234375Q1007.401123046875 422.2001953125 1032.201171875 449.1002197265625Q1057.001220703125 476.000244140625 1090.4011840820312 489.10015869140625Q1123.8011474609375 502.2000732421875 1160.8009033203125 502.2000732421875Q1243.801025390625 502.2000732421875 1290.60107421875 454.7000732421875Q1337.401123046875 407.2000732421875 1337.401123046875 319.0003662109375V0.0H1225.99951171875V277.999755859375Q1225.99951171875 344.19921875 1202.0997314453125 375.09893798828125Q1178.199951171875 405.9986572265625 1128.2003173828125 405.9986572265625Q1090.800537109375 405.9986572265625 1065.500732421875 388.5987548828125Q1040.200927734375 371.1988525390625 1027.2010498046875 334.299072265625Q1014.201171875 297.3992919921875 1014.201171875 239.599609375V0.0ZM1666.7999267578125 -213.800048828125Q1557.999755859375 -213.800048828125 1494.9996948242188 -174.60003662109375Q1431.9996337890625 -135.4000244140625 1431.9996337890625 -66.800048828125Q1431.9996337890625 -61.0 1432.6996459960938 -52.79998779296875Q1433.399658203125 -44.5999755859375 1435.399658203125 -36.7999267578125L1568.80029296875 50.199951171875L1599.0003662109375 20.599365234375L1533.8006591796875 -60.000244140625Q1532.8006591796875 -63.2001953125 1532.8006591796875 -65.60015869140625Q1532.8006591796875 -68.0001220703125 1532.8006591796875 -70.60009765625Q1532.8006591796875 -102.1995849609375 1570.2003784179688 -118.69940185546875Q1607.60009765625 -135.19921875 1666.7999267578125 -135.19921875Q1717.399658203125 -135.19921875 1746.999267578125 -121.6993408203125Q1776.598876953125 -108.199462890625 1776.598876953125 -80.7999267578125Q1776.598876953125 -65.6002197265625 1767.8990478515625 -56.10040283203125Q1759.19921875 -46.6005859375 1741.2994384765625 -40.8006591796875Q1723.399658203125 -35.000732421875 1696.7998046875 -30.60076904296875Q1670.199951171875 -26.2008056640625 1634.199951171875 -21.600830078125Q1588.7999267578125 -15.40087890625 1545.2998657226562 -2.20086669921875Q1501.7998046875 10.9991455078125 1473.2997436523438 36.99920654296875Q1444.7996826171875 62.999267578125 1444.7996826171875 105.9993896484375Q1444.7996826171875 143.799560546875 1470.8997802734375 175.19970703125Q1496.9998779296875 206.599853515625 1539.800048828125 226.7999267578125L1597.4002685546875 182.9993896484375Q1568.6005859375 177.3995361328125 1554.8005981445312 162.69964599609375Q1541.0006103515625 147.999755859375 1541.0006103515625 127.7999267578125Q1541.0006103515625 110.800048828125 1554.1005859375 100.400146484375Q1567.2005615234375 90.000244140625 1591.7005004882812 84.50030517578125Q1616.200439453125 79.0003662109375 1650.2003173828125 74.400390625Q1700.6004638671875 67.8004150390625 1743.6005249023438 59.8004150390625Q1786.6005859375 51.8004150390625 1818.9005737304688 37.3004150390625Q1851.2005615234375 22.8004150390625 1868.800537109375 -2.099609375Q1886.4005126953125 -26.9996337890625 1886.4005126953125 -66.7996826171875Q1886.4005126953125 -137.9998779296875 1828.8004150390625 -175.89996337890625Q1771.2003173828125 -213.800048828125 1666.7999267578125 -213.800048828125ZM1656.0 143.1993408203125Q1595.7998046875 143.1993408203125 1549.9996948242188 166.19940185546875Q1504.1995849609375 189.199462890625 1478.6995239257812 229.3995361328125Q1453.199462890625 269.599609375 1453.199462890625 321.19970703125Q1453.199462890625 375.599853515625 1480.0995483398438 416.2999267578125Q1506.9996337890625 457.0 1552.499755859375 479.60003662109375Q1597.9998779296875 502.2000732421875 1652.199951171875 502.2000732421875Q1705.800048828125 502.2000732421875 1751.0001831054688 479.60003662109375Q1796.2003173828125 457.0 1823.8004150390625 415.39990234375Q1851.4005126953125 373.7998046875 1851.4005126953125 317.399658203125Q1851.4005126953125 264.799560546875 1826.6004638671875 225.5994873046875Q1801.8004150390625 186.3994140625 1757.80029296875 164.79937744140625Q1713.8001708984375 143.1993408203125 1656.0 143.1993408203125ZM1653.5999755859375 231.800537109375Q1696.799560546875 231.800537109375 1718.8992309570312 258.30029296875Q1740.9989013671875 284.800048828125 1740.9989013671875 322.399658203125Q1740.9989013671875 362.19921875 1717.19921875 386.7989501953125Q1693.3995361328125 411.398681640625 1653.5999755859375 411.398681640625Q1612.8004150390625 411.398681640625 1588.4007568359375 386.49896240234375Q1564.0010986328125 361.5992431640625 1564.0010986328125 322.9996337890625Q1564.0010986328125 284.800048828125 1587.000732421875 258.30029296875Q1610.0003662109375 231.800537109375 1653.5999755859375 231.800537109375ZM1818.6004638671875 392.99951171875 1738.3992919921875 445.2001953125 1849.19970703125 534.8004150390625 1905.800537109375 465.7994384765625ZM1981.799560546875 0.0V493.0H2093.201171875V365.199951171875L2069.4007568359375 351.1990966796875Q2077.6007080078125 394.1995849609375 2094.1007690429688 423.2998046875Q2110.600830078125 452.4000244140625 2133.0009155273438 469.7000732421875Q2155.4010009765625 487.0001220703125 2180.7010498046875 494.60009765625Q2206.0010986328125 502.2000732421875 2231.801025390625 502.2000732421875Q2272.4007568359375 502.2000732421875 2307.2008056640625 486.8001708984375Q2342.0008544921875 471.4002685546875 2366.6010131835938 436.70025634765625Q2391.201171875 402.000244140625 2400.4012451171875 343.39990234375L2335.2001953125 324.7989501953125Q2350.2001953125 388.5997314453125 2377.0004272460938 427.49993896484375Q2403.8006591796875 466.400146484375 2440.30078125 484.30010986328125Q2476.8009033203125 502.2000732421875 2520.400634765625 502.2000732421875Q2583.000732421875 502.2000732421875 2621.4008178710938 474.50006103515625Q2659.8009033203125 446.800048828125 2677.8009643554688 402.5001220703125Q2695.801025390625 358.2001953125 2695.801025390625 307.200439453125V0.0H2584.9993896484375V280.4000244140625Q2584.9993896484375 320.7996826171875 2575.2994384765625 348.79937744140625Q2565.5994873046875 376.799072265625 2545.899658203125 391.39886474609375Q2526.1998291015625 405.9986572265625 2494.6002197265625 405.9986572265625Q2462.200439453125 405.9986572265625 2439.900634765625 389.39874267578125Q2417.600830078125 372.798828125 2406.1009521484375 339.0989990234375Q2394.60107421875 305.399169921875 2394.60107421875 254.599365234375V0.0H2283.5994873046875V284.599853515625Q2283.5994873046875 345.5992431640625 2260.9996948242188 375.7989501953125Q2238.39990234375 405.9986572265625 2196.0003662109375 405.9986572265625Q2163.2005615234375 405.9986572265625 2140.2007446289062 389.0987548828125Q2117.200927734375 372.1988525390625 2105.2010498046875 338.79901123046875Q2093.201171875 305.399169921875 2093.201171875 254.599365234375V0.0ZM3035.800048828125 -9.2000732421875Q2973.7998046875 -9.2000732421875 2928.4996948242188 11.0999755859375Q2883.1995849609375 31.4000244140625 2854.0995483398438 67.00006103515625Q2824.99951171875 102.60009765625 2810.8995361328125 148.10009765625Q2796.799560546875 193.60009765625 2796.799560546875 243.4000244140625Q2796.799560546875 292.39990234375 2810.5995483398438 338.69989013671875Q2824.3995361328125 384.9998779296875 2852.299560546875 421.7999267578125Q2880.1995849609375 458.5999755859375 2923.9996948242188 480.4000244140625Q2967.7998046875 502.2000732421875 3027.800048828125 502.2000732421875Q3085.2000732421875 502.2000732421875 3127.7001342773438 482.7000732421875Q3170.2001953125 463.2000732421875 3197.9002685546875 428.800048828125Q3225.600341796875 394.4000244140625 3239.400390625 349.9998779296875Q3253.200439453125 305.5997314453125 3253.200439453125 255.7994384765625Q3253.200439453125 249.3992919921875 3252.700439453125 236.29937744140625Q3252.200439453125 223.199462890625 3250.200439453125 210.1993408203125H2907.6011962890625Q2911.80126953125 151.0001220703125 2947.8010864257812 119.8006591796875Q2983.8009033203125 88.6011962890625 3040.4002685546875 88.6011962890625Q3080.60009765625 88.6011962890625 3115.000244140625 102.00115966796875Q3149.400390625 115.401123046875 3177.400390625 142.8009033203125L3238.4005126953125 69.1995849609375Q3206.6002197265625 41.399658203125 3175.8001708984375 24.0997314453125Q3145.0001220703125 6.7998046875 3111.5001220703125 -1.20013427734375Q3078.0001220703125 -9.2000732421875 3035.800048828125 -9.2000732421875ZM3143.598876953125 266.0001220703125Q3145.598876953125 274.0001220703125 3146.4989013671875 282.0001220703125Q3147.39892578125 290.0001220703125 3147.39892578125 297.60009765625Q3147.39892578125 319.5999755859375 3139.4989624023438 339.79974365234375Q3131.5989990234375 359.99951171875 3116.6990966796875 375.69927978515625Q3101.7991943359375 391.3990478515625 3080.0994262695312 400.4989013671875Q3058.399658203125 409.5987548828125 3030.2000732421875 409.5987548828125Q2991.2003173828125 409.5987548828125 2964.4005737304688 392.7989501953125Q2937.600830078125 375.9991455078125 2923.4010009765625 349.3995361328125Q2909.201171875 322.7999267578125 2906.201171875 292.4005126953125H3180.3994140625ZM3360.799560546875 0.0V493.0H3472.201171875V383.5997314453125L3452.201171875 379.39990234375Q3465.401123046875 422.2001953125 3490.201171875 449.1002197265625Q3515.001220703125 476.000244140625 3548.4011840820312 489.10015869140625Q3581.8011474609375 502.2000732421875 3618.8009033203125 502.2000732421875Q3701.801025390625 502.2000732421875 3748.60107421875 454.7000732421875Q3795.401123046875 407.2000732421875 3795.401123046875 319.0003662109375V0.0H3683.99951171875V277.999755859375Q3683.99951171875 344.19921875 3660.0997314453125 375.09893798828125Q3636.199951171875 405.9986572265625 3586.2003173828125 405.9986572265625Q3548.800537109375 405.9986572265625 3523.500732421875 388.5987548828125Q3498.200927734375 371.1988525390625 3485.2010498046875 334.299072265625Q3472.201171875 297.3992919921875 3472.201171875 239.599609375V0.0ZM4099.4005126953125 -9.2000732421875Q4061.600341796875 -9.2000732421875 4029.3001098632812 5.29998779296875Q3996.9998779296875 19.800048828125 3977.9996948242188 52.40020751953125Q3958.99951171875 85.0003662109375 3958.99951171875 138.4007568359375V613.3992919921875L4071.401123046875 674.60009765625V168.80126953125Q4071.401123046875 126.6011962890625 4083.60107421875 104.30120849609375Q4095.801025390625 82.001220703125 4129.4010009765625 82.001220703125Q4139.4010009765625 82.001220703125 4152.6009521484375 84.30120849609375Q4165.8009033203125 86.6011962890625 4181.0008544921875 90.6011962890625V5.0Q4160.80078125 -2.4000244140625 4140.300720214844 -5.800048828125Q4119.8006591796875 -9.2000732421875 4099.4005126953125 -9.2000732421875ZM3865.0 406.5987548828125V493H4181.0008544921875V406.5987548828125Z" fill="#16161D"/></g>
</svg>